<?xml version="1.0" encoding="UTF-8"?><svg id="Layer_2" xmlns="http://www.w3.org/2000/svg" width="58.92" height="58.92" viewBox="0 0 58.92 58.92"><defs><style>.cls-1{fill:#00e1ff;}</style></defs><g id="Layer_1-2"><path class="cls-1" d="M54.86,14.57C49.74,5.85,40.28,0,29.46,0S9.18,5.85,4.06,14.57C1.47,18.94,0,24.03,0,29.46s1.47,10.51,4.06,14.88c5.11,8.72,14.58,14.58,25.4,14.58s20.29-5.86,25.41-14.58c2.57-4.37,4.05-9.46,4.05-14.88s-1.47-10.52-4.06-14.89ZM26.18,48.22h-2.69l1.14-3.88.64-2.19,3.02-10.33h-11.78l-2.8,3.75h-1.96l1.73-6.13-1.73-6.06h2.01l2.8,3.75h11.73l-3.02-10.37-.65-2.19-1.13-3.88h2.69l2.29,3.88.35.6,7.04,11.93,11.28.03c2.93.35,2.84,4.52-.21,4.69l-11.09.03-7.03,11.89-.35.6-2.29,3.88Z"/></g></svg>